/* XPM */
static char *e1dfbccfa3714b30c023faf48f2ada88[] = {
/* columns rows colors chars-per-pixel */
"64 64 211 2 ",
"   c None",
".  c #BC0000",
"X  c #A01E00",
"o  c #AF2E00",
"O  c #A42100",
"+  c #AE3D00",
"@  c #BA3D00",
"#  c #B53A00",
"$  c #C33B00",
"%  c #AC4600",
"&  c #B54300",
"*  c #B24C00",
"=  c #BC4B00",
"-  c #B94400",
";  c #A35F00",
":  c #B65100",
">  c #BC5300",
",  c #B55E00",
"<  c #BC5B00",
"1  c #AC650A",
"2  c #B46400",
"3  c #BB6600",
"4  c #B56901",
"5  c #BC6B00",
"6  c #B76A09",
"7  c #BF700E",
"8  c #A86215",
"9  c #B96E12",
"0  c #BB722A",
"q  c #BD7532",
"w  c #B67431",
"e  c #C24300",
"r  c #CB4400",
"t  c #C24C00",
"y  c #CB4A00",
"u  c #D24700",
"i  c #D24C00",
"p  c #D94400",
"a  c #C55200",
"s  c #CB5300",
"d  c #C25C00",
"f  c #CA5B00",
"g  c #D55400",
"h  c #DB5500",
"j  c #D45B00",
"k  c #DB5C00",
"l  c #E14E00",
"z  c #E15C00",
"x  c #EB5D00",
"c  c #C46200",
"v  c #CA6400",
"b  c #C26D00",
"n  c #CC6D00",
"m  c #D56300",
"M  c #DB6300",
"N  c #D46B00",
"B  c #DB6D00",
"V  c #C57100",
"C  c #CC7301",
"Z  c #CC7A00",
"A  c #D47500",
"S  c #DA7500",
"D  c #D57901",
"F  c #DC7A00",
"G  c #D97C0B",
"H  c #C97416",
"J  c #DC7B13",
"K  c #D37A1D",
"L  c #D97D1B",
"P  c #D27911",
"I  c #E26400",
"U  c #E46D00",
"Y  c #EC6800",
"T  c #E47300",
"R  c #EB7400",
"E  c #E27C01",
"W  c #EB7C00",
"Q  c #E37F0D",
"!  c #F27800",
"~  c #C97421",
"^  c #C77826",
"/  c #D37C25",
"(  c #D77C25",
")  c #C17A3F",
"_  c #AF7241",
"`  c #B87A45",
"'  c #C37F41",
"]  c #D88304",
"[  c #D98719",
"{  c #E58300",
"}  c #EA8300",
"|  c #EA8900",
" . c #E18119",
".. c #D98527",
"X. c #CC853B",
"o. c #D68B39",
"O. c #E18221",
"+. c #E89238",
"@. c #BC875D",
"#. c #AD886E",
"$. c #BC8A62",
"%. c #BA8B6D",
"&. c #B8937B",
"*. c #BB8F6F",
"=. c #C88C4B",
"-. c #D88A41",
";. c #D3924F",
":. c #DB9449",
">. c #C58A57",
",. c #D69657",
"<. c #CE955D",
"1. c #E49245",
"2. c #CF9E6F",
"3. c #D29A66",
"4. c #C69D78",
"5. c #D09E71",
"6. c #C28A62",
"7. c #CDA27B",
"8. c #D3A47B",
"9. c #D2A071",
"0. c #738189",
"q. c #768994",
"w. c #7C8A94",
"e. c #85919B",
"r. c #8C929B",
"t. c #BA9B84",
"y. c #B39D8F",
"u. c #AE9D92",
"i. c #B29F94",
"p. c #AAA39C",
"a. c #BDA495",
"s. c #BAA69A",
"d. c #B5A99D",
"f. c #BBAA9C",
"g. c #BCA28E",
"h. c #8C9BA2",
"j. c #879CA3",
"k. c #939CA3",
"l. c #9BA6AC",
"z. c #9CA7B3",
"x. c #A8AAA8",
"c. c #BAADA5",
"v. c #B6AFA8",
"b. c #B6B2AE",
"n. c #BBB3AC",
"m. c #A5ADB5",
"M. c #A9AFB7",
"N. c #ACB3B6",
"B. c #ADB5BB",
"V. c #A8B5BA",
"C. c #BAB6B2",
"Z. c #BBBAB6",
"A. c #BCBDBB",
"S. c #B3B7B8",
"D. c #CEAB8B",
"F. c #C6A386",
"G. c #D1A782",
"H. c #D4A982",
"J. c #C2AA99",
"K. c #D0AE90",
"L. c #CDB59C",
"P. c #CAB39C",
"I. c #D1B194",
"U. c #D0B59B",
"Y. c #E4AD83",
"T. c #E7B894",
"R. c #EEBA8E",
"E. c #C7B5A6",
"W. c #CEBAA5",
"Q. c #C6B8A8",
"!. c #CCBCAB",
"~. c #CCB7A7",
"^. c #C6BFB7",
"/. c #CABEB4",
"(. c #E4BEA0",
"). c #BCC1BF",
"_. c #CCC2B5",
"`. c #CAC5BB",
"'. c #C3C2BA",
"]. c #D6C6B6",
"[. c #AEBAC3",
"{. c #B4BDC3",
"}. c #BABFC6",
"|. c #B5BFC8",
" X c #B4C1C7",
".X c #BAC1C6",
"XX c #B6C4CD",
"oX c #BBC4CC",
"OX c #BDC9CE",
"+X c #B6C9D3",
"@X c #BCCBD3",
"#X c #BDCFD8",
"$X c #B9C7D0",
"%X c #BFD0D7",
"&X c #BED0D8",
"*X c #C0C5C6",
"=X c #C6C9C3",
"-X c #C9C9C3",
";X c #C4CBCC",
":X c #C4C7CA",
">X c #CCD2CF",
",X c #D9D0C8",
"<X c #C2CCD3",
"1X c #C1CFD8",
"2X c #C3D1D4",
"3X c #CBD2D3",
"4X c #C3D2D9",
"5X c #CAD4D9",
"6X c #D3DADD",
"7X c #CFDAE0",
"8X c #D5DFE3",
/* pixels */
"                                                                                                                                ",
"                                                                                                                                ",
"                                                                                                                                ",
"                                                                                                                                ",
"                                                                                                                                ",
"                                                                                                                                ",
"                                                                                                                                ",
"                                                                                                                                ",
"                                                A d % f j j j a = j g j j * c F -.                                              ",
"                                      D a - < m S F L ~ H / (  .( ( ~ ~ K L S B v : & a F                                       ",
"                                  v f N L [ L P P D F E G A C A D F E F Z D D J  . ./ H v f d                                   ",
"                                +.S / H P D D F F A C C A D G D Z V Z D F D D C C D E J H / T :.                                ",
"                                R ^ V C A A n C A C D F A V C A F F A C C C D F A n A n n C ^ T                                 ",
"                              } F b Q F S A S A 3 2 n A A C A 2 3 A A A n 5 2 5 A S A A F E H F }                               ",
"                              R K b F F D D F Z 6 E A A F S F 5 5 F A A S F E 1 C F D F D E V / R                               ",
"                            | E H C F F S S E V b E F D G F F b V E F D F F E 4 C F F F S F C 5 W {                             ",
"                            U  .3 S S S F S F 5 V F A F F S F V b F A F F S E 5 b F S S S S S 5 { U                             ",
"                          ,.x N < E S A F S S 5 n S S S S A S 5 5 F A F S A S b 5 F A S F S T < m Y                             ",
"                          ,XY.^ v k k z M M B < n S S S S A S b 5 E A S S A S n , M m I z k M v X.T.,X                          ",
"                          <X3X3X`.P.8.,.] D N = f k h j h k h t = z h j h h k s * T D ..3.G.W.-X2X1X|.                          ",
"                          k.B.<XoX@X#X%X2X;X`.'.!.W.I.I.D.G.G.F.4.H.F.D.I.L.L.!.'.=X;X2X%X%X$XoX$X}.h.;X                        ",
"                          g.;X<X@X<Xm.w..XoXoXOX+X@X#X+X#X#X#X&X1X#X#X1X+X#X#X$XOXoXoX.Xl.e.OX@X<X<Xa.Y.                        ",
"                        E g 4 #.s.A.{.V.@X@X$XOX.X:X{.0.N.oX.X}.}.}.*X{.0.B.$XoXoX@X@X2X Xm.A.f.#.5 r |                         ",
"                        R R < e r - 5 ` *.t.d.b.Z.A..XB..XoXoX:X:X$X:X.XN.}.^.Z.b.d.t.%.` 5 t y - a R R                         ",
"                        +.U @ k U m k s i r # O y = < 3 3 3 3 8 8 b 2 3 3 d = e X $ u r g j I I j - R :.                        ",
"                        6X].4.[ U k k z k I h = I k z h k g h e - h h z h k k I = j M z z k M A -.F.].6X                        ",
"                        N.$X4X;X-X_.I.7.,.[ Z 3 S N M M m M I s y I m M M m N S 5 Z o.3.G.L._.;X4X4X<Xm.                        ",
"                        l.oX;X}.oX$X@X&X2X2X<X;X-X`._._.!.!.!.Q.Q.!.!./._._.`.-X;X;X2X<X#X#XoX.X}.oX4XS.                        ",
"                        >.^.OX@X#X[.q.A. X X.X.XoXoX+XXX$X+X$X@X$X#X+X$XXX$X$XoX.X|.}..X.Xe.m.%X<XOX^.6.                        ",
"                        l a 8 $.a.v.x.oX<X@X@X@X$X<X{.q. X;X.XoX.X.X<XB.w..X@X$X@X$X@X@X;Xx.x.a.6.; f p                         ",
"                        W S > h e t d 5 ` @.&.u.s.c.c.p.b.Z.A.A.A.Z.Z.C.p.n.c.a.u.&.@.` 2 c = e z : F R                         ",
"                        R P 5 E S S M m s h @ o y e t a a = a % % a = > a t e i o # g j m M S S W 5 K U                         ",
"                        R K 5 E A C A F F E C 5 E S N A S B T c < T B N S S S E 5 b E F D F A A E 4 ..T                         ",
"                        W K 5 F F A F A A E b 5 F D A F A A E b b E A A F A A E 5 b F A C F A D E 5 ( T                         ",
"                        R K 6 F D D F D D E 5 5 E A D S D S E 5 b F A A F D S E 5 C F D A F F A E 5 ..T                         ",
"                        W L 6 F F F S F D F V 5 F S F A F F E b b F D F A F F E 4 C F S F A F F F 2 ( R                         ",
"                        W J 4 F F F F A D F V 5 F F F F A D E 5 5 E F F D A D E 5 C F F F D S F F 9 J W                         ",
"                        { E 4 F F S D D F E V 4 F F F F D S F 5 5 F F F D D F F 2 C F F D A D F F 2 E {                         ",
"                          W 5 A S S A A A F C 2 F F D D A F F 5 5 E F D A D F F 2 C F S A A S S A 9 E 1.                        ",
"                          Y d v S A A S S S C 2 S S A A S S E b 5 E A A A S S F 2 C S S A S A S m < z                           ",
"                          T.X.v z k f M S S B 2 A S A A S S E b 5 E A A A S S S , N B N m M h I v =.(.                          ",
"                          8X5X`.U.5.-.D B m k # k k j j k M M a = M k j M k k z # m m A ] ;.8.W.-X5X7X                          ",
"                          k..X<X#X&X4X3X=X_.W.f.D.7.2.3.<.;.:.=.@.:.;.<.3.9.G.I.P.!.`.-X3X4X&X+X<X.Xk.                          ",
"                            *X5XoXoXS.z.oX$X$X%X#X#X#X5X4X2X<X&X2X2X%X&X5X&X@X#X+X$X$X$XB.z..X;X3X;Xb.                          ",
"                            H J.C.;XB.j.#X@XoXoX.XoX.Xk.[..X|.}.)..X}.{.k.{..X.XoX$XoX1XV.h..XC.J.V                             ",
"                            U r = c w %.t.s.n.Z.A..X.Xj.{.#XOX#XOXOX<X.Xj.{.*XA.Z.n.d.t.$.q d - $ Y                             ",
"                              I a z i y r $ r + * d 2 ~ ^ w ^ _ w ) 0 0 0 3 d * # r @ $ u i z y I R.                            ",
"                              ].2.E M z k k I y y z g i h u l - @ h r g h i z y g z k z z N ] 7.].                              ",
"                                7X3X_.I.5.-.] A c U m m M k I s a I j M M m B n A [ ;.8.L.`.3X7X#X                              ",
"                                :X3X<X#X4X4X2X;X=X`._._.!.!.W.E.Q.W.!.!.].'.`.=X;X<X<X#X@X<X;X;X                                ",
"                                  5X5Xm.e.oX.X.XoXOXXX[.$X@X+X@X#X$X@XXX[.$X$XoXoX X:XM.e.<X3X*X                                ",
"                                  6.~.Z.M.;X@X@X@X4X[.q.|.<XoX$X:XoX<X[.q.XX<XOX<XOX:X}.x.E.7.                                  ",
"                                    . S ^ ' $.&.i.s.f.c.n.n.n.C.C.C.n.n.d.c.a.y.&.@.) C S .                                     ",
"                                      z I U m k - t g s a a a & & a a a s s = e k M M U x                                       ",
"                                          W U ! N S W E E E W A A W W E E W A S R U E                                           ",
"                                                X.Z W T T U R f m R U U U W A o.                                                ",
"                                                                                                                                ",
"                                                                                                                                ",
"                                                                                                                                ",
"                                                                                                                                ",
"                                                                                                                                ",
"                                                                                                                                ",
"                                                                                                                                ",
"                                                                                                                                "
};
