/* XPM */
static char *fe48821af128415aee1a337ccc0b525d[] = {
/* columns rows colors chars-per-pixel */
"40 48 209 2 ",
"   c None",
".  c #A01E00",
"X  c #AF2E00",
"o  c #A42100",
"O  c #AE3D00",
"+  c #BA3D00",
"@  c #B53A00",
"#  c #C33B00",
"$  c #AC4600",
"%  c #B54300",
"&  c #B24C00",
"*  c #BC4B00",
"=  c #B94400",
"-  c #A35F00",
";  c #B65100",
":  c #BC5300",
">  c #B55E00",
",  c #BC5B00",
"<  c #AC650A",
"1  c #B46400",
"2  c #BB6600",
"3  c #B56901",
"4  c #BC6B00",
"5  c #B76A09",
"6  c #BF700E",
"7  c #A86215",
"8  c #B96E12",
"9  c #BB722A",
"0  c #BD7532",
"q  c #B67431",
"w  c #C24300",
"e  c #CB4400",
"r  c #C24C00",
"t  c #CB4A00",
"y  c #D24700",
"u  c #D24C00",
"i  c #D94400",
"p  c #C55200",
"a  c #CB5300",
"s  c #C25C00",
"d  c #CA5B00",
"f  c #D55400",
"g  c #DB5500",
"h  c #D45B00",
"j  c #DB5C00",
"k  c #E14E00",
"l  c #E15C00",
"z  c #EB5C00",
"x  c #C46200",
"c  c #CA6400",
"v  c #C26D00",
"b  c #CC6D00",
"n  c #D56300",
"m  c #DB6300",
"M  c #D46B00",
"N  c #DB6D00",
"B  c #C57100",
"V  c #CC7301",
"C  c #CC7A00",
"Z  c #D47500",
"A  c #DA7500",
"S  c #D57901",
"D  c #DC7A00",
"F  c #D97C0B",
"G  c #C97416",
"H  c #DC7B13",
"J  c #D37A1D",
"K  c #D97D1B",
"L  c #D27911",
"P  c #E26400",
"I  c #E46D00",
"U  c #EC6600",
"Y  c #E47300",
"T  c #EB7400",
"R  c #E27C01",
"E  c #EB7C00",
"W  c #E37F0D",
"Q  c #F27800",
"!  c #C97421",
"~  c #C77826",
"^  c #D37C25",
"/  c #D77C25",
"(  c #C17A3F",
")  c #AF7241",
"_  c #B87A45",
"`  c #C37F41",
"'  c #D88304",
"]  c #D98719",
"[  c #E58300",
"{  c #EA8400",
"}  c #EB8900",
"|  c #E18119",
" . c #D98527",
".. c #CC853B",
"X. c #D38A37",
"o. c #E18221",
"O. c #E69236",
"+. c #BC875D",
"@. c #AD886E",
"#. c #BC8A62",
"$. c #BA8B6D",
"%. c #B8937B",
"&. c #B78A70",
"*. c #C88C4B",
"=. c #D88A41",
"-. c #D3924F",
";. c #DB9449",
":. c #C58A57",
">. c #D49558",
",. c #CE955D",
"<. c #CF9E6F",
"1. c #D29A66",
"2. c #C79D78",
"3. c #D09E71",
"4. c #C28A62",
"5. c #CDA27B",
"6. c #D3A47B",
"7. c #D2A071",
"8. c #738189",
"9. c #768994",
"0. c #7C8A94",
"q. c #85919B",
"w. c #828C99",
"e. c #BA9B84",
"r. c #B39D8F",
"t. c #AE9D92",
"y. c #B29F94",
"u. c #AAA39C",
"i. c #BDA495",
"p. c #BAA69A",
"a. c #B5A99D",
"s. c #BBAA9C",
"d. c #BCA28E",
"f. c #8C9BA2",
"g. c #879CA3",
"h. c #919BA4",
"j. c #9BA6AC",
"k. c #9CA7B3",
"l. c #A8AAA8",
"z. c #BAADA5",
"x. c #B6AFA8",
"c. c #B6B2AE",
"v. c #BBB3AC",
"b. c #A5ADB5",
"n. c #A9AFB7",
"m. c #ACB3B6",
"M. c #ADB5BB",
"N. c #A8B5BA",
"B. c #BAB6B2",
"V. c #BBBAB6",
"C. c #BCBDBB",
"Z. c #B0B8BD",
"A. c #CEAB8B",
"S. c #C6A386",
"D. c #D1A782",
"F. c #D4A982",
"G. c #C2AA99",
"H. c #D0AE90",
"J. c #CDB59C",
"K. c #CAB39C",
"L. c #D1B194",
"P. c #D0B59B",
"I. c #E4AD83",
"U. c #E7B894",
"Y. c #C7B6A6",
"T. c #CEBAA5",
"R. c #C6B8A8",
"E. c #CCBCAB",
"W. c #CCB7A7",
"Q. c #C6BFB7",
"!. c #CABEB4",
"~. c #E4BFA0",
"^. c #BCC1BF",
"/. c #CCC2B5",
"(. c #CAC5BB",
"). c #C3C2BA",
"_. c #D4C6B6",
"`. c #AEBAC3",
"'. c #B4BDC3",
"]. c #BABFC6",
"[. c #B5BFC8",
"{. c #B4C1C7",
"}. c #BAC1C6",
"|. c #B6C4CD",
" X c #BBC4CC",
".X c #BDC9CE",
"XX c #BAC7D0",
"oX c #B6C9D3",
"OX c #BCCBD3",
"+X c #BDCFD8",
"@X c #B7C7D0",
"#X c #BFD0D7",
"$X c #BED0D8",
"%X c #C0C5C6",
"&X c #C6C9C3",
"*X c #C9C9C3",
"=X c #C4CBCC",
"-X c #C3C6C9",
";X c #CCD2CF",
":X c #C2CCD3",
">X c #C1CFD8",
",X c #C3D1D4",
"<X c #CBD2D3",
"1X c #C3D2D9",
"2X c #CAD4D9",
"3X c #D0DBDF",
"4X c #D5D9DB",
"5X c #D8D0C8",
"6X c #D4DDE2",
/* pixels */
"                        Z s & a h h h p * d h j h ; s A =.                      ",
"              S p % : M A D J ! ! / / K o.^ ! ! J H R N c ; % p D               ",
"            d b K o.K L L S D R F S Z S S D D D V S C H | | ^ G c d             ",
"          A / G C S S D D S V V V S F S Z B V S S D F B V D R F G ^ Y           ",
"        T ~ B b Z Z b b Z V Z A Z B V Z S F Z B V B S D Z v Z b B V ~ T         ",
"      E R v R W A Z A Z 2 1 b Z Z V Z 3 2 Z Z Z b v 3 3 Z A A Z D R G F         ",
"      T / B D D F D D C 5 R D Z D A A 4 4 D A Z A R R < V R F S Z R B ^ T       ",
"    } R 6 V D A S D R B 4 R D D F D D B v R D S D D R 4 B D A D D D V v E [     ",
"    I W 3 A A A D A D 4 B D Z D D S D v v D Z D A A D 4 v D D A A A A 2 [ I     ",
"    z n , R A Z D A A 4 b Z A A A Z A v v D Z A A Z A v 4 D Z A A A Y , n U     ",
"  5XI.~ c j j l m N N , M A A A A Z A v 4 A Z A A M A b > N m P l j P b ..U.5X  ",
"  :X1X<X(.J.6.>.' Z M * d j j h g g j r w P f j j h j h & A Z  .1.F.W.*X1X1X'.  ",
"  h.Z.:X XOX+X$X:X=X&XQ.E.T.P.H.A.A.6.S.2.F.A.A.L.K.T.E.).*X=X:X1X#X@X|.XX}.f.:X",
"  d.=X:XXX:Xn.9.}. X X.XXXXX$XoX+XOX+XOX1XOX+X+XoXOXOXXXXX X X-Xk.0. XOX:X=Xi.I.",
"R f 3 @.p.Q.'.N.OXOXOX.X X X'.8.m.-X}.].].].%X'.8.M.-XXX XOXOXOX{.m.C.s.@.2 y } ",
"T T , w e = 2 _ $.e.s.c.V.C.^.m.}..X.X X-X.X X}.m.].C.V.c.s.e.&._ 4 r e + s T T ",
"O.T + j I m j a y y @ o t * : 2 2 2 2 7 < v 2 2 x , * r . # y e f h P P h = T ;.",
"4X_.%.] N j j j j P h r P j P j g f g w = g f g g j h P * h P l l h m Z =.S._.6X",
"M.:X2X,X*X!.L.5.>.] V 4 A M m m m n P a p P m m m m M Y 4 C X.1.D.J./.&X1X1X:Xl.",
"j. X-X].|.OXOX$X>X>X=X=X*X(././.E.E.E.R.R.E.E.!./.(.(.&X=X:X:X:X$XOXXX X'. X2XZ.",
":.Q.=XOXOX`.9.'.}.'. X X|.|.XX|.OXOX.XOXOXXXXXXX|.|. X X X}.}.}.}.q.b.1X:X.X/.4.",
"k p 7 +.i.v.l.}.OX:XOX.X.X:X'.9.'.XX X X X XOXZ.0. XOXXX.X:XOXXX.Xl.l.i.4.- s i ",
"T D ; h e r x 2 _ +.%.t.p.z.x.u.B.C.V.C.C.V.V.c.u.z.z.p.t.%.+._ 1 s p w l & D T ",
"T F 2 R A Z M h f f + X t w r p * * a $ $ p * : p r w t X @ f h n m A A E 4 J Y ",
"T J 4 D Z V D D Z E B 4 R A Z N N N Y x s Y A M A A A E 4 B R D V D Z Z R 2 ^ Y ",
"T J 4 R D V D Z Z R v 4 R A V D Z Z R v v D Z Z A Z Z R 2 v D S Z D Z S [ 3 / T ",
"T ^ 4 D S Z A D S [ B 4 D D Z D S D R v v D S Z A D S R 4 B R S D S D D R 1  .Y ",
"E K 5 D D D D Z S D v 4 R Z D S S D R 4 v D Z D S D D D 2 B D A D Z Z S R 5 / T ",
"E ' 3 D D D D Z S R B 3 D D D S Z Z R 4 v D D D S Z S R 2 B D D D S Z D D 5 H E ",
"{ D 1 D D D Z S D D B 3 D D D S S D R 4 4 R D D D S S R 3 V ' D Z D D D D 1 R [ ",
"  E 5 Z A Z Z S Z D V 1 D D A Z S D D 4 4 D D Z Z S S D 1 V R A Z Z A A Z 8 T   ",
"  U s b Y Z Z A A A Z 1 A D Z Z Z A R v 4 R Z Z Z A A A 1 Z A Z Z A Z A n , P   ",
"  U...c l j h N N A Z > A A Z Z A A Y v 4 R Z Z Z A A Y 1 M N n n m j P c :.~.  ",
"  6X2X(.P.3...S N m j $ j j h h j n m p * P n h j g j j @ n m Z S -.6.T.*X2X3X  ",
"    ].:XOX+X1X<X*X/.T.G.A.D.3.1.>.-.;.:.*.;.-.,.1.7.F.H.Y.E./.=X<X1XOXOX:X].    ",
"    -X2X.X XZ.k.XX@XXXOXOX+X>X1X1X>X:X>XOX1X$X$X1X$XOXOXOXXX|. XM.k. XXX<X=X    ",
"    G G.B.-XZ.g.OXOX|. X X X'.h.`. X].].}.}.].'.h.'. X X X X|.>XN.g.}.B.G.B     ",
"      e * x q $.e.p.v.V.C.%X{.f.`.OXXX-XOX X:X].g.{.}.C.V.v.p.e.#.q x = #       ",
"      P p l u t e # e O & s 2 ~ ! q ( ) ) ~ q 9 9 2 s & @ e # e u u l u P       ",
"        <.D m l l g l a t l f u g u g + # g u f g f l t f m j g l M ' 2.        ",
"        4X;X!.L.7.-.' Z x A n n m m P a a I h m m m A v S ' -.6.P.(.<X3X        ",
"          :X:X+X,X,X:X=X(.(.(./.E.E.W.Y.R.W.R.E./.(./.*X:X:X1X+X+XXX=X          ",
"          <X2Xn.q.}.}. X X X|.`.XXXXOXOXOXOXOXXX`.XX|. X X}.-Xm.w.:X4X          ",
"            W.V.n.=X:XOX:X>X`.9.[.:X|. X X X:X`.9. X:X.XOXOX:X}.l.Y.            ",
"              A ~ ` #.%.y.s.z.a.v.v.B.B.B.v.v.v.z.s.p.r.%.:.` B Y               ",
"                P N m j % r f a a t p % $ a p a p t * r g m m P                 ",
"                    Y Q M A { R R R E V Z { R E R E M A T Y                     ",
"                        X.V T Y I I T c h T I I Y E Z X.                        "
};
