/* XPM */
static char *e338cf7a52314799bdceec9f6d944ea5[] = {
/* columns rows colors chars-per-pixel */
"64 64 31 1 ",
"  c #A5B3AE",
". c #A4BBAC",
"X c #A7B5B0",
"o c #A8B6B1",
"O c #ABBBB5",
"+ c #AFBFBA",
"@ c #ABC3B3",
"# c #AEC9B6",
"$ c #AFC1BA",
"% c #B4C3BE",
"& c #B4CCBD",
"* c #BACCBF",
"= c #B6C5C0",
"- c #B8C6C2",
"; c #B7C9C2",
": c #BBCBC5",
"> c #BECEC8",
", c #BCD1C5",
"< c #BED2C9",
"1 c #C4CFCC",
"2 c #C3D4CE",
"3 c #C9D2CF",
"4 c #C3D9CE",
"5 c #C6D6D1",
"6 c #C9D6D2",
"7 c #C7D8D2",
"8 c #C9DAD4",
"9 c #CEDED8",
"0 c #D1DDD9",
"q c #CEE0DA",
"w c #D0E1DB",
/* pixels */
"%:->>>;-->->;-2XX<::>::>:::>>=>OO>::-::-=:>::>>OO>:::::::>::::>+",
":87677778887778==95855588588859==97898886595859=:88756557855778>",
"-72777235572278%=8555555555<5<7+=955<2576536557%%78655555552556:",
"-77238627777778%=85555555577778%=85555255586559=%555<5555255678:",
">756>,725557278==955659055,5779==8<855555655857=%75755652590667:",
":7522>272222659==655568908:5858==95555555555858==7<577876399865>",
":<5>*2745777728$=75556568585875%=55855<555555<8==95557555656856:",
":5753*,25577259%=55555555655579%=8555555<585558=+55555555756758:",
">75875;:5255756=$95555557752279%=85555555555558=%<>58<<77755757>",
">778577<5856558==95775557772258=$85<65555555858=%9>585856556557:",
":75<7<<88555579==55555555727728%=98555855558559=%7<85755766<5<5:",
">5577587257<><8==55755<55757788=+85555555555<58==95568576755558:",
":755555<<5<8855=$88<27277566778%=95555785555558$=857785875<8587>",
"=5<55<55<<55755+=87222285675228%+855555<5555557=%77<8<5<8787<55>",
">78957859888889==97877888888879::88858958878959==q9855788787858>",
"o==============XX=%%%%=%==+%%%@ X====$===%=====XX:%:=%==%=%==%=O",
"+========$===== X===+===%=+.O%% X-=-====%%=%%=-  =%%===========X",
">98559989898959==97877779895,,9=-98988786897889+=98887885877859>",
";5<5555<55<55<5==85557<75152522%=85>55755568756%=8<875;<<7757<7:",
":85555555585559+=8<578<55255557%%8577<>555>5558==98<<5<>7<7777<;",
":555555>5555555==85555556575528=+855<855865<5<8=%7<87585252555<:",
"=5555355><55555=+95577556625558=-5>55558<588559+%8;:97756665765>",
">9158975<588559+=5555155555755<O=8:<55656055557%%<7;:5555668657>",
">55500655555<55%=95555555777555.=:<78>566985555+%875>5575>6<555:",
":55618853267<58=+85521377255558==<#<9857<8875<9%%955655<5565;<8:",
">55555562656725==951752752555<8=$9<;8<275765588%%85855752685<:<:",
":57522725375273=O55555557757555$=77<5<5<<78<559%%7<8<87525558<<;",
"$<5577777757327=$<<557522755557==85575857777557=%75<587<6655<59:",
"%:3275552<55228=O547<57575<55<5=%955555577><7<8=%75<<8558755858>",
":7>2775<7757256=@#2772555255559=+955555577<=<<8=%9557755<<55858>",
"<99778995986889-><,q77988888959==988898877q<<q8==785<8877877879>",
"O=%%%%%==+=====o :$%$%%O$=+%===XX===+%+%=======  O+===;========O",
"O=%%%%%%=%=====XX;%;=%%%+%=%=%=XX==%===$====++=X ;=$=%$$=======o",
">96998889878q<q:;q777757988985q-:q5688958958859=$88985877755889<",
":555555555<77<q;%7755555>555558+$955555555555<8==558557<<<85<75:",
":555558<757877<=%9>2255557>5557=$8<85855<5>5559=$585555785588<7:",
":7555555575<8<<=%777>7>55577558=$855555558555<9$%87725557865<58>",
":8558<55558>,<q=%57755775755558+$95555855555558=%875732557>5877>",
":555768<5578;;7+%77785587957555%=95585555555557==75225<55555557:",
":855566575878<<O=957>55>57>7555=%858555555685<7%=7772275555<677;",
":855581<5555859 %755>589<556>58%=75<552<2766858=%5>555165590526:",
">58618588855859+%955758q8855588%=87856572;&77<8==98558615500866>",
":8<61775<558558++95556589555558==8<555757>*2858%+855855656589<8:",
"-865<88>5558558%;75555557>77868%=9,,57552787858=%8555555<856558:",
">77>85858556588==85886585577887==85585552777538%=5><75158<7<57<>",
":77>5<<858>8><8%%56>555575>75>7+$95555852227257%%7;>75557555555:",
">98788988888989==95688887979889%:q8888988878789==88887977788889:",
"+==%%%=%=+%=%%-XX=%%%%%%=%%%==; X===O==$=%%%%=:  ==;=%%=%==%=+=+",
"X%%%=+%%%%%==%:XX:+=++%%;%+==+- X==+=====%==+%=XX;==%%%%-===%+=O",
">q798997799797q;:9887977795979q-=q7988857888879=;q8888578898889>",
">7>77<9<5775>89%+97>>5575>>5757==9775<<5<755778%=8<7<55855555<5%",
">7777<>755>77>8==877875>5777>59%%8<778855875857==888555<7757759=",
">7775>=<77795;<:-8>7556>5577759+%95<55775857858==8558558<>87558>",
";778587><7><5>7=+87885555577759%%96855555855758==8<555558555558:",
":55><8557955>78;=8555>555557777+-758755555585<8+%865<<977758975:",
":77555557577778%=8585555555>7>7;%756565855<8778=%875778555585<5>",
">865855><75>977%=8555555>656>89%%75755558558557%%955588<<585558:",
">8>8>>85577>777==555555566556<8%%78<555581667>8%+95<58<>>886665:",
":>>598555>85>78+%85855556555888==8<78<5589<:5<7%=8555585><56887:",
":96600855555558=%85555555555659+%778576<9wq>=<9%=<>8758>55865>7>",
">55559855555779%%9<5557588558<8==8<558558qq9<<<=%8<885585>85575:",
":555555555577>8%+75>55>5>85<8>8+%98<55>5<9<88<<X=85<5<<5158>>58:",
";95575775777779;=95556585888858==88855588<8<889X=95877888798858>",
"+%>->>;>:::>;;>OX:>=>>:=:=>>>:>O+>>>->>><::>>:>OX>->>>-::::>=->%"
};
