/* XPM */
static char *_93f6b71b6c94e62c8012d0663980090[] = {
/* columns rows colors chars-per-pixel */
"64 60 83 1 ",
"  c #00CAD6",
". c #0CCCD7",
"X c #00CCD9",
"o c #0CCDD9",
"O c #12CBD7",
"+ c #1ACCD7",
"@ c #13CED9",
"# c #1ACEDA",
"$ c #00D1DE",
"% c #1CD0DB",
"& c #24CCD7",
"* c #23CEDA",
"= c #2CCFDA",
"- c #31CCD7",
"; c #3ECCD7",
": c #31CFDA",
"> c #3ACED8",
", c #23D1DC",
"< c #2CD1DC",
"1 c #33D2DD",
"2 c #3BD2DD",
"3 c #36D5E1",
"4 c #3CD6E1",
"5 c #3ED8E3",
"6 c #41CED8",
"7 c #43D3DD",
"8 c #4CD5DE",
"9 c #51D3DD",
"0 c #44D6E1",
"q c #4DD7E1",
"w c #45D9E2",
"e c #4BD8E2",
"r c #51D7E1",
"t c #54DAE4",
"y c #5ADAE2",
"u c #60DAE2",
"i c #5EE5EF",
"p c #63E5EF",
"a c #64E7F0",
"s c #68E7F0",
"d c #66E9F1",
"f c #6DEBF3",
"g c #64EFF8",
"h c #74EEF6",
"j c #79EFF7",
"k c #75EFF8",
"l c #79EFF8",
"z c #67F0F9",
"x c #6CF1F9",
"c c #77F0F7",
"v c #7CF0F7",
"b c #77F0F8",
"n c #7BF1F8",
"m c #83CED7",
"M c #86CFD8",
"N c #8CD2D7",
"B c #86D0D8",
"V c #89D2D9",
"C c #9FE4E9",
"Z c #84EFF6",
"A c #8DEAF1",
"S c #85EFF8",
"D c #95ECF3",
"F c #9CEEF4",
"G c #82F0F7",
"H c #8AF0F7",
"J c #83F1F9",
"K c #8AF0F8",
"L c #9DF0F6",
"P c #A2E6EA",
"I c #B2E4E6",
"U c #B7E6E9",
"Y c #B9E7E9",
"T c #BCE9EC",
"R c #A1EFF4",
"E c #A4F1F6",
"W c #A9F3F7",
"Q c #A5F4F9",
"! c #ACF5F9",
"~ c #ADF8FB",
"^ c #B1F5F7",
"/ c #B2F7FA",
"( c #B5F8FB",
/* pixels */
"IQKcjkkjkkkkjkkjnk0*F(Gkjjkclknk4+<,,<shfkW/JSjccjjjjklk2+.O &fD",
"U~Jkbbccncbbcbckbb< F(Ghkkkkhhhh< X   scklWEjfhkkkkkkkkh* +*,<gA",
"U~Kkbbbbcbbbbbcjbb1XF(Sjvc2.,##*XX    .@@#11=,*<%<hjnk3#o*hkhh,9",
"T~Jkbbbbbbbbbcnkbn1 D~jfkh1X%#@@,*<<,,*%@@  X   XOshkf*X.*fhhh$;",
"T~Kkkbkbbbbbbcbbjk1 hG4@#%phffhffhLEEWWEvf,      XXoooXX  Xo+* 6",
"T~Kknbnbbbbbbkkkkk1 dk=X+*hGvGvvvv!(!!!WGf2<111-11=-<<--11<= o >",
"T~Skcbbbbbbbnbcvkl1 *=OXpcQ~!!!!~!!!8&21#,FWEWWWEWWWW!WWEWWE1XX-",
"T!Hccbbbkkkhhhhhhh3 oo odvQ/~~!!~!~!7   o*E(!!~/~^~!~WW/!!/E< @1",
"T~~WGhbccnjn4X%@@@XXXXXXdnE/KvGvjvGvhf<oDW~WJvGjlSlvJvSlGvGj*@dj",
"UE!^Khjjhhhh4@=<::11::+XahW^Zkkkkjkknj< F(!!vhkkkkkkfffhfhhd*#hZ",
"BXD(Kbjv0X@XabLWEWWE!WqX+#R(vkllncnkck<XF~Sncnjjncnn<@##.OoO ofj",
"mXD~Sfhk4@==hnQ//W~~!EqoooF/Jnjkbccknj<XR/lhkhhhhhkf<#**=1<1=2kj",
"mXhG4X@XikLWW!~~Hlvv4Xdk, R(~WSknkbcnk<XF/Gkvk3@+#o%skfkEEEEEElj",
"mXah3o<*fvQ/W!WWSkkf4+hJ0*DWW~Jkbcbcjk<XD~jfhh* ##*<kJvJ!(~/~Wjj",
"mX=#ahLEW!SjGvSlll4oDEWWWWr+Q/Gkbbbcjj<XjG3@*#XoakQWW/~W~WJjvvjj",
"mX& dbQ/!!Skbklklk1XD(W~W~7XD/Gkbbbbnk<Xsf% @#*1hJ!/W~WW~Wchljjj",
"mX#XdlQ(Knnjcccjnc1XF(Jnvv1XF/Ghcnbcck< **X#skLEW!~WJvvvvGllbjbj",
"mX>1phDEGckkkkjjhh1 D/Ghbc1XF/Hjnkbkck3%,#X#hl!/!!!Wvhjkkkbbbjkj",
"mXAWtX#Xsvbbnkcc2X  fvcknc< L(~WGkbbnjhfkf,Ofl!~Jllvnkbbbbbbkjnj",
"NXF(u*>:pkfhkhhh5*11hvjjbb2@DW!/Ghbbblnblk*ohlWWGkkkbbbbbbbbjkhh",
"YW!~WWWWyX=*,*O.pkRWW/Jkbckh2-E/Gccbnbnnnk#XhvW~vbljkbbbccckch1&",
"T/W!!~/(yX@   *=hv!^WWJkbbcb, F/Gcbbklffkf3*dkW~Jcnlcbbbccckck*.",
"T~HlllQ/Sh1 . A!WW~~Kjjlbcbc< F(Gkbknk3+@odf,oE/~Wlkcbbbnlcjcj# ",
"T~SklkQWJf4 ,@D(!!!!Gkknbcbn< R/Gkkkkk<X*:jv4-D~/WGlnbbbbbkjkf1&",
"T~KknkvGwO+Xphjjcvvvcjbbbkcc< E/Gbvb3oXXD~W!WE8-R~jkccccbkvc<<fk",
"T~Jkbkkc4 oXhJjkjkkkbknbbkck< F~ldkf4::1L/W!~Q2XR^SjlcccjkhfoXhj",
"T~Hkcnln4 @XD/Sklnnbcnbncknn< E(qXoXDWWWGcnllj*.W(~~Jkckch<oO*hj",
"TQSkknkl4 +XF(Skbckkkkkkkkhf< DE0X=2E(!~Gkkklk3*FWEEGkjknk*  +sh",
"Pbllblkn4 XXD(Jkbbbnnnnkvn2ooX,<XXDWW!Slnbbbcjhh1#*<fjkknh*X@o%*",
"Czjkklln4 ==F/Gkjkhhhfhhfh< +@  *2E(!!Skbbbbckjj1X +hjkjbh1%O. .",
"Cxnlnkjv4 DWW/Hkvc2Xoo@@@@@@X   DW~WJblbbbccbbkkkf@Xhkkbbkcd+ o+",
"Cgkhkkjl4 DWWWZfkf3+<<+#%+oX<1*%D/!QGkbbnckjkkcjjh21kvjbnkbc<@o+",
"MX*Xsnll2 +@+*XXXXakQWjfkk< D!jfvGvvlnkbbbnlvnkk,oFW!!vccbckkf* ",
"VX0>dhkk4 12222>2>hJQ~Kbhh<XR(JcnkkklkkkbbhfhhlS07W/!EGcbbbbkh=O",
"CgL!rXsS4 D/W~!!~W~WGklj2  XF(Gknnllllvvvb<  oF~W!/WJjccbhbh*.  ",
"PbW/r ah4 D(!W~~!!W!Ghlb1 **D~jhkkfhhfhfhd<%=1E/!!!Wvkkhccbf* 12",
"T~Jl4 oooXD(Jkllllllclbb1Xfcnncjnk<X+@@#o%fvE!//Skllvvkkbnnk#*EW",
"TQSkw***@ D(Ghjjklklllkn3Xdjhfkhhh< @ooo.@dcEWWElfhhhkhhhfhf#*W(",
"Pcllhhhj4 D(Jknbbbllbkbb3 ##@ooXoXX   X   +%*<****@ooXXo+#+*X+E!",
"Cxllllll4XD/Skkbbbnkbbbn1X+ =<<*=<1=11<11<.   ooX *===<<XX o=7E^",
"Pxlbkjkc4XfGlknbbbbbbccn:XXXDWQWWQQWWEWWWE1 o dj*#DWEE!E2X <F!~^",
"Cxlbkkjc4 pfknkbbbnckkjk3X:7F(!!!!!!~~~W~E7*<,dk<*W(~!~E2X ,E(EW",
"Cxnbccnv4 +@svbnbnkcbbnn3 F~!~Sknnnbncnljjkknc<  oE~Zkvk<  *E^vj",
"Pxlkhhfk4 oXsnkkkkkkhfhf4*E(!WSkkbbkkkkkjkcjhf< :7L!jhck,XX,E/Jj",
"Pxvn3XXX  .odnccnvvc3X@@phEWGcnbcbbbbbcnnbnj<X .R~Zkcjvc, X*E(~!",
"Cghfw-21<,@ phhhfffh<  XhJW~Ghcbbbbbblcjbkhd< ,1E/jhkkhd1*o*DE!^",
"mX* A/W~Jh2 @@  o%%@ @oXD//~Jkbbbbbbbbbknh<o@@dcWWvjnh<ofho +:W(",
"mX>1D(WWKb3 @.<2% XXoOoXD~WEGkbbbbbbbbbknh, o+hGW~vknl, jv71 &FE",
"mXDW//Kjll3 X A/q +oXXXXfGvvjjjlbbbccnjkvj<   F~/~Sklk*@F/WR*XXo",
"V$F(RFjdfh0,21F(yX+X<<<,pfffkjkkkbbnbkjkhd, ,1R/WQlklk*@R//Wq20>",
"T!/(yX+XXoikL!!/Sh3 dkhh, XXfjkjnbccbklk3 o@dnW~Gklllk*OQ(W/W!WW",
"URWRrX<=26hSE~QWZf1 hJvGt277shkkkkkkljhf< o+jJW~Ghjkkk,oF/~W~W~W",
"mX=+@XdkL/!!Jkjv4XX D/!/~!WW7Xhlcjnnjk1XX X#E(//Jbnnnb*oE(//Skjj",
"VX&X@XdvE^!/Hkbb2 12F(WW~W~Qeodhhfffkk< 22O#DERFkfffff*@DEFFlkkj",
"Cz5XX svQ/~^Jknv4XD~//Jkjjjllh1XoXo@hl< FW1 oX@+ooXXXXXXXXo,hjjj",
"Pxe*1*pkDEW/Sjkh1 F(WWShjkkjll4*<=oodh*XR~7*<*o .+<<<<0772.@shkj",
"Czhkkk3 oXF(//r OXF(Jcnkbbnckjkkbk* @+XoR^jhck,   dkhkE!!E-Xo*kv",
"PbSSvGy772AERRt## D(Gccnnbccccjcbk4=@OXoF~Zkhf8778jSjJ!^~E7<<<ph",
"T~W//~WW~!7 XXak1 F/Jhbcbbccccckbklk,  XR(Gj# D/!!~!/!^~Gjkhcj*+",
"T!WWWWWW!^u17>hK2 F/Shckkkkkjkkckkjk5<<<ARhd87R(WWWWWWWEjkjhhs* "
};
