/* XPM */
static char *e60164212a554644dc49e06658d6e2c8[] = {
/* columns rows colors chars-per-pixel */
"64 64 95 2 ",
"   c #09C1CC",
".  c #14C2CD",
"X  c #00CAD6",
"o  c #0CCCD7",
"O  c #01CCD9",
"+  c #0CCDD9",
"@  c #12CBD7",
"#  c #1ACCD7",
"$  c #13CED9",
"%  c #1ACEDA",
"&  c #01D0DD",
"*  c #1BD0DC",
"=  c #27C4CF",
"-  c #24CCD7",
";  c #23CEDA",
":  c #2CCFDA",
">  c #31CAD5",
",  c #3ECCD7",
"<  c #31CFDA",
"1  c #3ACED8",
"2  c #23D1DC",
"3  c #2CD1DC",
"4  c #34D2DD",
"5  c #3BD2DD",
"6  c #2CD6E0",
"7  c #36D5E1",
"8  c #3CD6E1",
"9  c #3ED8E3",
"0  c #4CC9D3",
"q  c #41CED8",
"w  c #52CCD5",
"e  c #5ECCD6",
"r  c #43D3DD",
"t  c #4CD5DE",
"y  c #51D3DD",
"u  c #70C3CA",
"i  c #44D6E1",
"p  c #4DD7E1",
"a  c #45D9E2",
"s  c #51D7E1",
"d  c #54DAE4",
"f  c #5ADAE2",
"g  c #60DAE2",
"h  c #63E5EF",
"j  c #75E2EB",
"k  c #7CE4ED",
"l  c #64E7F0",
"z  c #68E7F0",
"x  c #66E9F2",
"c  c #6DEBF3",
"v  c #64EFF8",
"b  c #74EEF6",
"n  c #79EFF7",
"m  c #75EFF8",
"M  c #79EFF8",
"N  c #67F0F9",
"B  c #6CF1F9",
"V  c #77F0F7",
"C  c #7CF0F7",
"Z  c #77F0F8",
"A  c #7BF1F8",
"S  c #83CED7",
"D  c #8CD2D7",
"F  c #86D0D8",
"G  c #89D2D9",
"H  c #8CDBE0",
"J  c #81E5ED",
"K  c #9EE4E9",
"L  c #84EFF6",
"P  c #8DEAF1",
"I  c #85EFF8",
"U  c #95ECF3",
"Y  c #9CEEF4",
"T  c #82F0F7",
"R  c #8AF0F7",
"E  c #83F1F9",
"W  c #89F0F8",
"Q  c #9DF0F6",
"!  c #9FF3F9",
"~  c #A2E6EA",
"^  c #A5E9EC",
"/  c #AAEAEE",
"(  c #B2E4E6",
")  c #B7E6E9",
"_  c #B9E7E9",
"`  c #BCE9EC",
"'  c #A1EFF4",
"]  c #A4F1F6",
"[  c #A9F3F7",
"{  c #A5F4F9",
"}  c #ACF5F9",
"|  c #ADF8FB",
" . c #B1F5F7",
".. c #B2F7FA",
"X. c #B4F8FB",
/* pixels */
"` | W m M M m Z 8 X + O b W V m Z Z Z Z Z Z Z Z Z m V m 6 O Y ..n c b c r 4 4 4 Q X.{ } | [ 4 O ' ..I n M b V Z Z n m z + + m n ",
"` | W m Z V M Z 8 X $ O U ..T M Z Z Z Z Z Z Z Z Z V Z Z 3 O ] X.t O & & U } [ [ W Z A A M b ; + [ X.| } I b Z b Z m 6 + $ % m C ",
"u b j j b j j j j j j j j j j j j j K / ^ ' J j j j j j j j j j j j j j j j >   . = K / / / J j k k k k k n J k J J w 0 w e J ^ ",
"H Z Z Z A Z Z A Z Z Z Z Z Z Z Z Z Z { } | | W Z A A Z Z A Z Z Z Z Z Z Z Z V 3 O & * ! X.| | A M Z Z Z Z Z Z Z Z Z c & O O O v U ",
"( { L m b V b b Z b M b Z Z Z Z C C i : Y ..C m Z Z C C Z Z b M 5 * 3 2 * 3 x V c b } ..T C C C Z A M b M b n b 5 - o o O : c U ",
"_ | W m Z Z Z Z Z Z Z Z Z Z Z Z Z Z 2 X Y ..T Z Z Z b b b m m m 3 X X X O O z C b V ] ] n c b b c m m M b Z m b * X * - % 3 c I ",
"` | W B Z Z Z Z Z Z Z Z Z Z Z Z Z Z 4 O Q ..W Z Z Z 5 o ; ; # ; O o X X X O o $ $ * < < : 3 ; 2 ; 6 c M A V 4 % + 2 c b b b 2 y ",
"_ | W Z Z Z M Z Z Z Z Z Z Z Z Z Z Z 4 X U ..Z c V c 7 & $ $ $ % * 2 3 : 2 ; ; * % $ O O O X X o O $ x M m c 2 O o ; c m b m O , ",
"` | I B C Z Z Z Z Z Z Z Z Z Z Z m M 4 X b A 5 % % % z m c m c m c V Q { [ [ [ ] n c 2 X X O O O O O O o + + O X O O O o * 2 O q ",
"` ..I m Z Z Z Z Z V Z Z Z n Z b M m 4 X l b 4 X % % b A C T A A C C } X.[ } | [ T m 5 : < < < < < < < : : : < < < < : : O o O 1 ",
"` | W m Z M Z Z Z Z Z Z n b Z A M M 4 X : 3 $ O h n { } } } [ } } } | [ p ; 1 4 % % Y [ ' [ [ [ [ [ [ [ [ [ [ [ [ [ [ ] 4 O O < ",
"` } W V C Z Z Z b b Z b m m m b b b 7 O + X X O z C { ..} } } | } } | [ r O O O + 3 ] ..| } | | | | } | } | } | } }  .{ 4 X $ < ",
"` | } { W m V Z Z n C C 8 O % $ $ $ O O X X O X z C { | W C T C C C A C b c 3 + U [ } } T Z C T n n L M T C T A A T T C ; @ z n ",
") { } ..W b b n m c m m 8 $ : 3 < : 4 < 4 4 % O z m ]  .C m M m V C M V A M 3 X ' X.} } T b b b n b M b c m c m m c m z ; % m T ",
"F O Y  .I n n Z i X $ O l M Q [ [ [ [ ] [ [ t X % % ] ..T m Z Z V V V V C b 3 O Y ..T Z Z Z Z C Z b A M 3 + ; % + $ o $ X o c n ",
"S X U ..n b b m 8 $ 3 : c A { X.} | | } [ [ s + @ o Y | T C n m V V Z V C b 3 O Y ..M M M M m c m b m c 3 % ; ; : : 3 : 3 5 b n ",
"S O b W 8 O $ O h m Y [ [ } | ..I n A A 8 O l m 2 X ' ..| } T m Z Z Z V Z b 3 X Y ..A M A M 7 % % % + % z b c m ! ] [ ] { ] M n ",
"S X h b 7 + 3 ; z T { | } [ [ } W b m c 5 % m T i ; U [ } ..T m Z Z Z C A M 3 O Y | n b b c ; O % % ; 4 b T A W } ..} } | } n b ",
"S O : % h m Q ] [ | W M M A I A n M 8 + U [ ] } [ [ y $ ' ..I m Z Z Z b Z n 3 O b M 7 $ ; % O O l m ! [ [ } | [ | | L n C C n n ",
"S O - O h Z { ..} | I b Z Z Z m Z n 3 X Y ..} } | ..r X Y ..I m Z Z Z Z M M 3 O z b % X $ % : < m W [ ....} [ | [ [ n M V n n n ",
"S X # X z C { ..R Z M Z Z Z V V A Z 4 X Y X.W M A C 4 O Y X.C m Z Z Z b Z b 3 X ; % O % l b ! ' ] } ..[ T n A A A C M M Z n Z n ",
"S X 5 3 h m U ] T V n n b Z b V m c 4 O U | C m V V 4 O Q ..T C Z M Z V M M 7 * ; % O % B E [ X.} } | { T b b m b m M Z Z n b n ",
"S X U } t O * O h A M Z Z Z C Z 8 O O X c A n b C V 3 X Y X.} } A M Z Z M M c m m c ; @ c A [ } T M A A Z C Z Z Z Z Z Z b n Z n ",
"D O Y X.g - 5 4 h b b b b b b b 8 ; 1 < b T n Z V V 5 % U }  . .W b Z Z Z Z Z Z Z M 2 $ c A [ } C V M b Z Z Z Z Z Z Z Z C n b b ",
"_ { | ..[ [ [ [ f O : ; ; ; $ o l m Y [ } | L b Z M m m 5 3 ' ..T Z Z Z Z Z Z Z b b 2 X c A [ | C m M M Z Z Z Z Z Z Z b Z n 4 ; ",
"` | | [ | | ....f O $ X O O ; ; b T { ..} } T b Z M V b 2 X ' ..A Z Z Z n M c m m m 4 2 z b [ | W C C M V Z M Z Z C Z C Z b % o ",
"` } R M C n ] ..W c 4 X o O P } ] } }  .W n C b Z V V V 4 O ' ..T m Z b Z b 4 $ + + x c 6 + { X.} { A b V V V Z Z Z M b C b ; X ",
"` | I m n b ! | T c 8 X : $ U ..| } } | T m Z Z Z b Z V 3 X Y X.T V b Z n b 3 O : < n A 5 : Y [ | } T b Z Z Z Z Z Z b V b b 3 - ",
"` | W B M M C A a $ # O l b M M n C A C C n Z Z Z b Z V 3 X Y ..T M Z Z 4 O O O U } [ } [ [ p : ] ..n b Z Z Z Z Z b Z V 3 3 z b ",
"` | W m Z M M Z 8 X o O b T b m b b M Z Z Z Z Z Z M V b 3 O Y ..n c b c i < 5 4 Q | } } | [ < O ' | T n M V V Z Z n b c $ O b C ",
"` | W m Z Z M Z 8 X @ O U ..L M Z Z Z Z Z Z Z Z Z b Z V 3 X ] X.p O + O U } ] } T M M M M M 3 o [ X...| W Z Z b Z b 3 + o ; b C ",
"` { W m Z M M Z 8 X % O Y ..L M Z Z C b b M b Z b Z b m 3 O U ] 5 O 4 4 ] ..} } T m Z M M b 4 ; Y ] ' ] A Z Z n Z b : X O % z b ",
"~ Z n Z Z M M n 8 X X X U ..L m Z V b n M A Z M A Z 4 o $ O ; 3 O O Y [ } ..T M Z Z Z Z Z n b m 4 % ; 4 c n b Z Z b 2 O + @ % ; ",
"K N C b M M M A 8 O : : Y ..I m n b m m m c m m m b 3 O % @ O X ; 5 ' ..[ [ I m Z Z Z Z Z n Z n 4 O X @ b Z n b n b 4 % $ o X o ",
"~ B n n Z b M Z 8 X U [ | ..W M A Z 8 O + + $ $ $ $ @ o X O X X U } } | T M Z Z Z Z M M Z Z M Z b b * O c M b V Z b b c $ X + % ",
"K v b m b M M Z 5 X U } ] [ n b b m 4 % : : * % % * @ X 3 4 2 * Y | } [ A m Z Z Z Z b b b n Z b b b 4 4 n A Z Z Z n Z b 3 $ + # ",
"S O 2 O h A M M 8 X $ $ % % O O O X h m ! { C c b b 3 X U } n c n M I M M Z Z Z Z Z Z n A Z V V 2 o Y [ [ } A M Z Z b m b c ; X ",
"G O r 5 h m n M 8 X 4 r 5 4 r 5 5 5 b T { } T C b m 3 O Y X.T C C m M b M b b M Z Z b b m c C T r r [ ..} { C m Z Z b m n b ; # ",
"K v Q | f X c A 5 X U } } [ [ } [ } [ | W V Z V 5 O O O Y X.C m Z Z n M M M A A A Z 3 X X + Q  .} [ ..| I Z Z Z Z b M m 3 o O X ",
"~ Z { ..s X l Z 5 X Y  .} } } } } } } [ T V A C 4 O - * U } T m C b c b b c m c c c 3 % 3 4 Q  .} } [ [ Z M M m V n M m % O 4 1 ",
"` { W M 8 X + + o O U ..W n M M M M M n Z M Z Z 4 O c M M M n n Z b 6 O * $ $ * + * c Z ] } } X.T C C C C C V V Z Z n m % ; Q [ ",
"` | I M a % : ; # O U ..I m M m n M b m M n Z Z 7 X z n b b b m b b 3 X @ o + o o $ z n ] [ [ ] n c b V b b b V b m m c $ : [  .",
"~ Z Z M n b m b 8 O U X.I m M M M M Z Z Z M Z Z 4 O % % @ + + O + O O X X X O X O X % % ; 3 : ; - 2 $ O O O O o % % % ; O % ]  .",
"K N Z Z Z Z Z Z i O U ..I m m M M Z Z Z Z Z Z Z 7 O # X : : ; 3 : 3 : 4 4 4 3 4 4 3 o O O O + + O X : < 3 : 3 - X X X o : r ]  .",
"~ B n V b Z M Z 8 X z M n M Z Z Z Z Z V Z Z Z Z 7 X O O U } { { [ [ { } ] } { ] } Q 5 X o X c b 2 # Q } { [ } ] 5 O O 2 Y } | [ ",
"~ B n V M b n Z 8 O l b b Z b Z Z Z M Z b b n Z 4 O 4 5 Q ..} } } } } } } } } } | ] i * 3 3 z b 3 - ] ..} } } { 5 O O - ] ..} [ ",
"~ N n b V C Z A 8 X % @ c A C Z Z Z V V V V Z Z 4 X Y | } ..T Z Z Z Z Z V V Z M n n b m b m 3 X X o ] | T b C b 3 X O 2 ] } C n ",
"~ B n m m c m b 8 X o O c Z b Z b b b b m c b m 8 ; ] ..} ] T m Z Z M M Z m Z M n b C C m c 2 X 4 r Q } n V V b 3 O O ; ] ..T n ",
"~ B n M 8 X O O O X o + z A M Z C Z Z C 7 O % $ h V { | T C Z Z Z V M Z Z Z Z Z V V C C 3 O O o Y } n C Z M Z V 2 X X ; [ X.| } ",
"K v b c a < 5 4 3 ; $ O h m c b c b m c 3 O O O c E { | C m Z Z Z Z Z Z Z M Z n V V V c 3 O 2 3 ] ..n b M M m z 4 2 o : U [ } [ ",
"F O ; X P ..[ | I c 8 X $ $ O O o # % $ o $ o O U X.}  .T M Z Z Z Z Z Z Z Z Z V Z V 3 + @ $ z V [ } C C Z m 3 + c m X X $ 4 [ ..",
"S O 1 : Y ..[ | W M 8 X $ o : 5 % O O O O $ o O U } { } T b Z V M Z Z Z M Z Z b Z c - X o * b E [ | A b M M ; O n C r 4 O ; Q / ",
"S X U } [ ..R A A Z 4 X O X P | p X % + O O O O c T C C C V Z Z Z Z Z Z Z Z Z V A Z 3 O O + U ....| T m Z b 6 @ Y ..[ ' ; X O o ",
"G & Y ..' ' n z c c 9 2 r 4 Y X.f O % O 3 3 3 2 h b c c b V V Z Z V M Z V V M b c c 2 O 2 4 Q ..[ [ A Z Z b ; + ' ....[ p 5 i 1 ",
"` { ..X.f O # O O O h m Q }  . .W V 4 X z V c b 2 O X O c C V V Z V Z Z V C C C 4 O o % z Z [ ..I b M b Z b ; @ ' X.} } | [ } } ",
") { ] ] s X : 3 5 r b T { } { } L c 4 X b T T T s 5 r r z b b n b b m m V V b c 3 O O % b T [ } M m n M Z M 2 + ] ..} | [ } [ [ ",
"S O : % $ O z Z ] } [ | I b C A 5 & O O Y } } } [ } | } r O b Z Z Z A A A m 3 O O X O ; ' ......E M A A Z M 2 o ] X...| I b M n ",
"F O - X @ O l Z { ..} ..I b n Z 5 X 4 5 Y X.} } } [ } { p + h m c m c c M m 3 O 5 5 o % U ] ' ' n N c c m c ; @ U ] Y Y n m b b ",
"K N 8 X O X z A { ..|  .W m A A 5 O U } } } R b n n M n M m 4 O + O + $ b M 6 O Y [ 3 X + + $ $ o + O O O O X X O O + 6 b C C n ",
"K Z p ; 4 3 h b Y ' [ ..T n n b 4 X Q X.} } L m M M Z b M b i ; 3 : + + h b ; O ' ..i ; 3 ; + O @ $ : : 6 : r r 5 1 + $ z b b n ",
"K N b b c m 7 X O O Y X.....s X $ O Y ..T V Z M Z Z Z Z Z n b b m m : X @ % O + Y ..n b M b ; X O O z M m m ] [ [ [ < X o ; b A ",
"' Z T W I I d 5 r 5 P ' ' ' d % % O Y ..T M Z Z Z M Z Z Z Z Z Z V M 8 ; $ @ O + Y ..L b b c p r r i n T T T { ..| ] i 2 3 3 z b ",
"` } | | } ..} } ..[ p X O O l Z 4 O Y ..W Z Z Z Z Z Z M Z Z Z C V b n m 2 X X O Y ..T M % O Y } } [ | ....} ..| L b n b C b ; @ ",
"` | [ ] [ [ [ [ } ..g < r 1 b W 5 X Y ..T c n Z b b Z b b V b b V b n b 8 3 3 3 U ' b z r r ' ..[ [ [ [ [ ] [ ] L b b b b z ; o "
};
