/* XPM */
static char *d8693f77a09548c5aa3476ee276783ce[] = {
/* columns rows colors chars-per-pixel */
"24 24 65 1 ",
"  c None",
". c black",
"X c #000002",
"o c #000508",
"O c #001212",
"+ c #001414",
"@ c #021A1C",
"# c #022326",
"$ c #033134",
"% c #043B3D",
"& c #054040",
"* c #054546",
"= c #064446",
"- c #074E4E",
"; c #085050",
": c #095958",
"> c #0A5B5B",
", c #095A5E",
"< c #0B5E5E",
"1 c #0F7475",
"2 c #108B8A",
"3 c #0E9296",
"4 c #0F9494",
"5 c #0C9A9C",
"6 c #0D9C9C",
"7 c #03AAAB",
"8 c #05A9A9",
"9 c #00AFAF",
"0 c #00B4B3",
"q c #00B9B6",
"w c #00B9B7",
"e c #00BAB6",
"r c #00BCB9",
"t c #00BEBD",
"y c #00BFBD",
"u c #00C0BE",
"i c #00C2BE",
"p c #00C1C0",
"a c #00C2C2",
"s c #00C3C4",
"d c #00D2CD",
"f c #00D1CE",
"g c #00D3CF",
"h c #00D1D0",
"j c #00D2D1",
"k c #00D2D3",
"l c #00D4D0",
"z c #00D4D2",
"x c #00D4D3",
"c c #00D6D2",
"v c #00D7D6",
"b c #00D7D7",
"n c #00D9D7",
"m c #00DDDB",
"M c #00DCDC",
"N c #00DEDC",
"B c #00DFDF",
"V c #00E0DF",
"C c #00E7E0",
"Z c #00E5E3",
"A c #00EBE1",
"S c #00EAE2",
"D c #00EEE0",
"F c #00EEE1",
"G c #00EFE1",
/* pixels */
"                        ",
"           23           ",
"           fv           ",
"         SzqqvZ         ",
"       G4      5G       ",
"      F          F      ",
"     F            F     ",
"    F             #F    ",
"    6              8    ",
"   z               $n   ",
"  @f                Mo  ",
"  Si       ,1       zV  ",
"  0s       =,       z7  ",
"  +z                V.  ",
"   h%              =h   ",
"    0              y    ",
"    F&            ;F    ",
"     F+           F     ",
"      F-        ,F      ",
"       Fr:    <aF       ",
"         ahMmfi         ",
"          Xwi.          ",
"                        ",
"                        "
};
