/* XPM */
static char *_956b545eea749b98c58d88d2467d8c8[] = {
/* columns rows colors chars-per-pixel */
"64 64 228 2 ",
"   c #010100",
".  c #0A0805",
"X  c #0C0A05",
"o  c #120D04",
"O  c #110E09",
"+  c #181403",
"@  c #15130C",
"#  c #1B140D",
"$  c #161714",
"%  c #1C1A14",
"&  c #211C0A",
"*  c #231A12",
"=  c #2A2509",
"-  c #36300C",
";  c #23231B",
":  c #28261A",
">  c #34261B",
",  c #3D3511",
"<  c #2B2B24",
"1  c #2B2B25",
"2  c #323124",
"3  c #35342A",
"4  c #3C3A2D",
"5  c #4E2D18",
"6  c #473F14",
"7  c #443426",
"8  c #523A2C",
"9  c #573E2E",
"0  c #673F2B",
"q  c #4E4618",
"w  c #4B4528",
"e  c #59412F",
"r  c #524C2C",
"t  c #5A532C",
"y  c #4B4836",
"u  c #574333",
"i  c #5B4332",
"p  c #544E32",
"a  c #5D4A36",
"s  c #5E4E3A",
"d  c #565134",
"f  c #5B5435",
"g  c #5F5837",
"h  c #55523D",
"j  c #5B553B",
"k  c #5E593D",
"l  c #694F2D",
"z  c #634835",
"x  c #654C38",
"c  c #6A4E3A",
"v  c #625A35",
"b  c #61553E",
"n  c #6E523D",
"m  c #645B38",
"M  c #625C3C",
"N  c #71533E",
"B  c #73672F",
"V  c #776C3B",
"C  c #7D713B",
"Z  c #505047",
"A  c #555444",
"S  c #5D5A43",
"D  c #5A5847",
"F  c #625D44",
"G  c #695C45",
"H  c #755740",
"J  c #755A41",
"K  c #7C5D44",
"L  c #656145",
"P  c #6A6444",
"I  c #666249",
"U  c #6A654A",
"Y  c #6D694C",
"T  c #746147",
"R  c #726A42",
"E  c #7A6448",
"W  c #726D4D",
"Q  c #77714D",
"!  c #6E6A52",
"~  c #676658",
"^  c #726E53",
"/  c #767152",
"(  c #7A7555",
")  c #7D7857",
"_  c #75725A",
"`  c #7B765B",
"'  c #7E7959",
"]  c #526677",
"[  c #666962",
"{  c #656C6B",
"}  c #787766",
"|  c #656F73",
" . c #667174",
".. c #6F7573",
"X. c #67747C",
"o. c #797A75",
"O. c #7D7E79",
"+. c #8C4A39",
"@. c #AE4D3C",
"#. c #88792A",
"$. c #9F7E2E",
"%. c #8C7D36",
"&. c #83763A",
"*. c #857838",
"=. c #8A7C3A",
"-. c #BB6A34",
";. c #A97A31",
":. c #C2503E",
">. c #CF6D38",
",. c #825E46",
"<. c #A25C48",
"1. c #BB5944",
"2. c #816047",
"3. c #8E6E45",
"4. c #846349",
"5. c #8A644A",
"6. c #846B4F",
"7. c #8A7254",
"8. c #827C5C",
"9. c #A6705B",
"0. c #827E65",
"q. c #C15542",
"w. c #C66853",
"e. c #D57966",
"r. c #94832E",
"t. c #99872E",
"y. c #9B892E",
"u. c #8F803B",
"i. c #958431",
"p. c #998730",
"a. c #9C8A31",
"s. c #98883C",
"d. c #A28E35",
"f. c #A59235",
"g. c #AA9637",
"h. c #AD9936",
"j. c #A7943A",
"k. c #AE9A38",
"l. c #B19D3A",
"z. c #B9A43D",
"x. c #BFAA3E",
"c. c #C98C3B",
"v. c #C2AC3F",
"b. c #C7B13E",
"n. c #8E8143",
"m. c #998A42",
"M. c #A89743",
"N. c #AC924A",
"B. c #B9A541",
"V. c #868164",
"C. c #8A8565",
"Z. c #8C8867",
"A. c #85826A",
"S. c #89866B",
"D. c #8D896C",
"F. c #91826E",
"G. c #908B6C",
"H. c #8A8875",
"J. c #8D8A74",
"K. c #928D72",
"L. c #918E79",
"P. c #959173",
"I. c #9A9576",
"U. c #9D9877",
"Y. c #95927C",
"T. c #99967A",
"R. c #9D997B",
"E. c #A7917A",
"W. c #A29D7D",
"Q. c #A4A07D",
"!. c #C5B041",
"~. c #C1A160",
"^. c #5D7891",
"/. c #687985",
"(. c #687C8A",
"). c #697E92",
"_. c #7A848A",
"`. c #698195",
"'. c #6A859E",
"]. c #6B869E",
"[. c #708091",
"{. c #758A9E",
"}. c #7D8E9D",
"|. c #6385A2",
" X c #6A87A1",
".X c #6B89A4",
"XX c #798EA2",
"oX c #878987",
"OX c #9A9682",
"+X c #9C9A86",
"@X c #8B8F92",
"#X c #808F9D",
"$X c #8F9395",
"%X c #82919E",
"&X c #8B959E",
"*X c #94999B",
"=X c #959A9D",
"-X c #A29E81",
";X c #A19E89",
":X c #A6A282",
">X c #A9A585",
",X c #ABA886",
"<X c #A6A38C",
"1X c #AAA68A",
"2X c #AEAA8A",
"3X c #B1AE8D",
"4X c #B4B08F",
"5X c #ABA994",
"6X c #B2AF94",
"7X c #B5B292",
"8X c #B5B29C",
"9X c #B9B69B",
"0X c #BAB79A",
"qX c #8293A3",
"wX c #969CA1",
"eX c #999DA2",
"rX c #BDBAA3",
"tX c #BAB8A4",
"yX c #C3BEA7",
"uX c #D1BEAA",
"iX c #C5C2AD",
"pX c #C7C4AC",
"aX c #C7C5B1",
"sX c #C8C6B1",
"dX c #CCCAB5",
"fX c #CFCDB8",
"gX c #D0CEB9",
"hX c #D4D2BD",
/* pixels */
"      . . .     . .         . .   . . .                                   .     . .   . . . . . . . . . .         .   . .       ",
"                                                                                                                                ",
"X   - B B #.B 7 ! S.S 7 w Z ] ] ] ] ....X.D y 7 7 7 7 7 7 7 7 7 7 y w y k S j U A.A.A.A.A.V.A.OX*X+X+X+X0.y y y t B B #.#.B &   ",
"+   q g.z.l.n.A T.7X0.S M ~ .X.X.XqXeXeXeXo.b x i i i i z i u z F F F I ( 8.( D.4X4X4X4X4X3X7XaXgXgXfXhX8XF S I %.d.h.h.h.d.-   ",
"o   6 f.h.h.u.h P.7X' D /.).'.'.{.#X%X=X=X} f s 9 i a S j a j p V.R.^ k ( ' ( ' C.U.3X2X3X3X3X7X9XsXdXgX6XS S I &.t.f.g.h.d.-   ",
"+   6 d.h.h.u.j P.2X' D `..X].'.%X#X}.&X=X..f s e i x P U Y ~ I T.7X` F ( ` ) ` Q Z.2X,X,X,X>X:X3XsXsXdX5Xk F F &.y.f.g.h.y.=   ",
"+   6 f.h.h.u.A ! _ L F )..X}.}.%X%XqX&X=X} g L j 8 9 w 0.yXtXyXY.M k j ( ' ) ( ) V.V.V.V.V.V.V.K.fXyX} ^ F F F *.y.i.a.d.#.=   ",
"o   6 d.g.g.u.P M S F ~ `.'.}.%X}.%X}.&X*Xo.g I P G G ^ +XdXgXgX+XU _ _ / ( ( ` ' ( Q ( / / ( W 8.rX8Xf f I I S &.r.i.i.a.#.=   ",
"o   , r.a.i.a.j.&.S (..X'..X.X{.}.%X}.=X=X} k f G R.6XyXsXdXdXsXsXiXsXtX` k ' ' ' ' ' ' ' ' ' Y G U U F P ( W F F P u.y.a.#.=   ",
"o   , r.p.i.a.h.&.D /.`.`.`.).[.}.}.}.%X*X..k ^ V.>X9XpXsXyXiXdXdXdXdXyX_ j ( / / / ( / / / / I F ^ ^ U W 8.^ U F F &.i.i.#.=   ",
"o   , r.a.t.p.t.C S j d h h F {  X X'.{.%X..m R.2X2X,X2X3X2XyXsXdXfX9X2X_ k I L L L L L L L I k ! 2X:X( ( ( ( ( Y F d f t.r.=   ",
"X   - *.=.*.=.u.Q U V.J.K.S.m ~ /.`.'.{.}.{ m :X7X2X3X,X3X,X9XdXrX5X-XK.Y S L F S F F F F F F L ^ W.I.8.( ' ( 8.W U A.J.3.B ;   ",
".   ; k L k Y ' / / 8XfXdXyXF p v  ..X X.X{ m :X7X4X4X4X3X,XyXgXY.r L S S L L F L F L L L S F ( ' ( ( ) ( Q W W E W tXdXQ , ;   ",
"X   : U W Y / ( C.I.rXfXdXiX<XL.k ~ X./.X.~ L A.J.D.D.D.T.5X6XyXJ.f T E T T J K J U J G F U Y ` ( ( ) / D.,X1X1X<X<XiXsX1XL.2   ",
"X   2 ( 8.) ) / T.4XyXdXsXdXhXtXL S k g j S F k j h h y } 6X2X2XV.k E 5.4.5.5.5.5.5.<.,.J E 7.7.6.7.7.E E.uXuXuXiXuXuXsXhXiX4   ",
"X   2 / ) ( C.U.:X2XiXdXdXiX+XH.D V *.&.&.&.&.C =.m.M.s.N.~.N.9.<.@.@.@.:.q.:.:.q.q.q.1.1.1.1.1.1.1.w.w.w.e.e.e.e.e.e.yX;XH.3   ",
"X   2 / ) / P.4X3X,XiXdXfXrXS r S R a.t.a.$.t.$.f.c.>.>.>.>.>.+.+.N 0 0 c n c H 4.4.4.T S W ' ( ) / Z.2X3X>X,X,X>X,XpXaX^ , ;   ",
"O   2 ( ' Q P.4X2X2X7X8XY.A.U L S C ;.-.-.>.>.>.>.>.c.v.b.b.m.D z 9 c n n N n H 4.4.4.T S / ' ' ) ( C.2X3X3X3X3XP.' S.H.! A %   ",
"X   2 / ) Q P.2X,X,X,X:XP r F L I V ;.;.;.d.g.!.v.g.g.v.b.b.m.S x 9 c N n n n H E 4.4.T F / ) ( ) ( C.,X,X,X,X,X} r f d S k $   ",
".   : F Y ( V.V.C.V.C.V.U L S R %.i.i.a.g.f.g.g.k.g.l.x.b.b.N.S S 9 c n n N F F G G L L F L I ( ) ( ) C.C.C.0._ Y L I I L k $   ",
".   : b Y ( ( / ( ( / / I I S R t.p.i.d.g.g.g.g.g.g.l.v.x.z.m.S x 9 H H n G F F L L I U P L L / ) ` ` / ^ / U j k F L G P S #   ",
".   > 2.E F W ' ' ' Y F M m D V t.t.i.p.$.f.k.g.g.g.l.b.k.P b i 9 i c c G F k P ( ( Q W W k d f f d j I L P L G j i K 4.4.J *   ",
"X   > 2.E F Y / / / I I [ ~ F R %.%.p.i.$.d.f.f.f.f.j.l.m.A s u i u c H F L P W ) 8.C.G.P.H.0.V.V.A.} F F F F F a 9 J 2.4.K *   ",
"X   > K 5.4.T L F I v S `.`.k g S C t.i.i.p.p.p.i.a.i.P b i i i i u S F S G ( ( W G.3XrXdXdXsXsXsXgX8XP k I j i e i c N 2.K *   ",
"X   > 2.5.4.T L F F [  .`.]...} S R &.u.t.i.i.t.i.%.C S b i 9 i 9 i S F U Y ( 8.Z.U.2X9XiXiXiXiXyXgXtXI j F x 9 z z c N K N *   ",
"X   > K 4.4.T L m v (. X'.{.wXoXm g f *.t.t.t.t.i.P S P b 9 i i i i S G ( ' / Z.4X2X2X3X3X2X4X2X4XsXtXI s i u a c N n n N c #   ",
"X   > 2.4.4.T F [ X.`. X'..X=X*XO.o.O.' &.&.&.&.C L S I b j a i i 9 F G / ) ( 0.U.U.U.I.I.U.I.P.-XdXtXL s a 9 i c N N n N x #   ",
"X   > 2.5.4.T M /..X'.'.'.{.*X=X=XwXeXo.t S F S F j j j F I j e 9 a F G ) 8.( ) ( ( Q ( ) ( ) Q V.dXrXI s a i u x N n n N x #   ",
".   > N K K G m X. X'..X'.].%X&X=X=X=X@XH.[ F P ) ;X5X5XL.f k k a u F F U Y Y Y U / ) / P U U Q ' Y.J.M a u 9 i z z c n N x &   ",
"X   * c G S F M X..X'.'.'.].}.%X=X=X*X=XeX} m Q Z.pXhXhX8Xg F L s 9 b F M F S F S Y ' Y k k S ( / d p F F 9 i i u i c c N c #   ",
"    * z b M { (.`..X'.'.{.}.}.%X%X&X=XoX} _ / W V.2X9XdXiX8XL.j F b &.%.%.%.s.s.s.n.F Y.tX8X8X8XtX8X8X8X+Xj s i 9 i z z z u @   ",
"    * i x m X..X.X'.'.'.}.%X%X%X}.&XeXo.t W 8.( V.W.7XsXdXhX5Xh L G %.y.t.a.g.h.k.u.p <XhXdXfXdXdXgXfXhX8XF s i i a i a a e O   ",
".   * a S v X. X].].}.}.}.%X}.%X%X%XeXO.k W ' R.2X2X4X3X9XfX;Xw S L %.t.d.g.h.s.R W ( 0.D.>X7X4X7XaXsXdX5XM S F j j f s f p @   ",
".   1 ^ ^ M  .'.'.].{.}.}.%X%X%X}.%X=X} k / 8.W.2X>X,X>X9XfX5XY U F %.t.g.g.g.s.S U 8.Q W U.3X,X4XsXsXgX5XF F P Y ! ^ _ _ ~ %   ",
"$   Z tX5Xw S L /..X.X].}.%X%X}..X(.Y I S / ) ' 8.) D.3X9XfXpXiXL.f u.t.g.f.R L M Y 8.( ) W.4X,X4XsXdXhX6Xj U / P.,XtXyXiXtX4   ",
"%   A sXtX0._ M  .).`.'.}.}.}.{..X/.v L I / ) ( ( / V.Q.2XrXiXhXY.d %.t.g.d.L S U W ( ( ( I.>X>X4XiXiXtX;XS R ) W.3XyXsXaXtX4   ",
"%   D aXfXfX+Xq k L (..X X.X X X.X(.M W ' ) ) ' 8.' ' ' ' R <XhXOXr %.t.h.f.L P ( ( ( ( 8.Q ) -X3X4X:XI F F W ) U.3X2X2X2X-X2   ",
"%   Z tXsXfX8XJ._ k X.(././.(./.(. .F W / Q Q / Q Q Q W ) Z.+X8XS.f %.t.f.s.L I 8.( ( 8.( V.G.,X,XW.G.S F Y ^ ( R.3X2X,X4X+X2   ",
"$   Z R.9XgXdXfXOXr F S k S S S S S S A Z A A Z A A D j 8.4XJ.d F F u.y.y.u.M Y 8.( 8.( ( W.4X3X,X8.^ F Y ) ( ( W.7X2X2X3X;X2   ",
"@   y -X7XtXiXgXOXt R C C C C C C C C =.m.m.m.m.m.m.n.j 0.4XK.g F L C &.C C L P W / ( ( ( G.U.I.K.( Y G U ) ' ( G.U.>X2X3X-X2   ",
"$   y 2X7X>X9XfXOXr =.a.i.p.i.p.t.t.r.l.b.v.v.v.B.b.B.g 0.7XP.k I L M g f g L L S Y ' ' ) ) / ( / G F F Y ) ) ) ( ( W.4X4X:X2   ",
"O   4 Z.R.,XrXgXOXr =.p.i.p.f.f.d.f.f.h.z.z.v.v.x.b.B.F ! D.( k S F o._._.O.I k F L Y Y Y Y Y W U L F F I Y / ) ( ( Z.P.P.C.:   ",
".   2 Y G.,XrXfXOXr =.t.i.a.g.g.g.g.k.j.f.z.v.x.x.x.M.L S k S F M M @XeXeX$XU k I F L k S F S F L L F L L S Y ) ' ' ( / ( Y %   ",
"X   2 ( V.Z.Z.H._ k %.t.i.a.g.g.h.g.g.g.g.h.z.z.x.b.z.L S F { `._._.}.&X*X=X@XoXoXoXoXOXW.` S x a a a a j S Y ' ) ( ` ) 8.^ ;   ",
".   2 / ) / U d S F =.t.i.p.g.j.g.g.g.g.h.g.g.z.x.x.k.L F v /.|.XX}.}.}.=X=XwXeXeXeXwX5X5X} j a e e u u x F W ) ( ` ( ( ) Y ;   ",
".   : F P M k k S F %.t.p.t.p.a.p.d.l.g.g.g.h.v.x.3.R I F v | .X{.%X%X%X%X%X%X&X=XwXwXH.W G i a i e z K K 2.T I I P I P P F %   ",
".   : S U ^ _ _ ! F &.i.%.r.i.r.r.a.g.f.g.f.f.x.z.P Z F F I X..X{.%X%X%X%X}.}.%X&X=XwXo.t s 9 i i u c 4.2.4.E F F G F F L j @   ",
".   1 r J.iXiXiXL.q v v G R p.t.p.p.y.a.y.y.t.y.t.m S m { '.'.'.}.%X%X}.%X%X%X%X%X&XwXO.v j 9 i i c n n K 4.4.E 4.4.4.E L h %   ",
".   1 r P.sXfXfX<X` A.} I L u.u.u.%.%.u.%.%.%.m.m.` ! M { .X.X'.{.}.}.%X}.%X}.%X}.&XeXO.f x 9 i z c N n H K K K 2.2.4.4.G F #   ",
".   < p V.,XrXdXaXpXdXiX` d j t d f f f f g U Q.4X3X:XM { .X'.'.'..X}.%X%X%X%X%X}.%XeXO.k x i i i N N N c H H H H H 2.4.5.K *   ",
".   > h V.,X9XyXsXdXtX1X^ L H.L.L.J.J.J.K.! S D.T.U.J.F ~ (.`.'.'.'.{.}.}.%X%X%X%XwXeXO.g j i i i x c c H c c H H H K 4.4.K *   ",
".   : w } 2X2X>XiXfXS.w d _ sXfXdXdXdXfXhXY.d L k r r d f v  ..X].].'..X}.%X%X%X=X=XeX0.f s 9 9 u e z N c H H c H 2.4.4.4.K *   ",
"O   4 V.T.2X2X2X5X<X` F 0.T.pXdXsXdXdXtX<X` a a G Y.;X;XH.v X..X].]..X'.{.{.{.XX}.&XwXO.g F s j x u z x x x c K E 4.E T E G %   ",
"$   y 2X7X2X3X4XV.w g L :X9XdXdXdXdXfXT.q i a 5 G iXhXgX8Xt X..X].].'.'. X X X X|.qXeXO.f G F L F i 9 9 9 9 H 4.4.4.P S G j #   ",
"X   3 0.D.A.D.D.^ S A.T.1X3X0X9X9XpXdX+Xd s i z G F.W.E.0.N _  .)..X.X`.X.{  .|  ...o.} W W W L F b j b s 9 x H J T G F L k $   ",
".   ; p h h h k k S R.4X,X2X,X2X:X8XfX+Xf s i n N z 0 0 N 5.K t /..X'.'.~ l M v f t t P ( / ( U F L L L F i u 9 j F F F L A @   ",
"+   q j.M.B.u.A V.+X:X3X3X3X2X0XyXsXgX+Xd a i c H H H c H 4.E K ~ {  .{ S L Y S.8XtX5XtX8X8XtX_ p S M F F d j M F F S L s.u.=   ",
"+   q x.!.b.m.A I.7X2X2X,X,X,X4XsXsXdXOXf s i c x c H H H 4.5.4.J k m M L Y W T.dXfXdXdXdXfXdXH.F ! U P G U I L G L L P j.f.=   ",
"+   q z.!.v.m.k P.3X2X,X0.! ^ ^ } ` 8.Y F a e i a c H c H 5.4.4.T L S I ^ ( Q Z.4X7X7XrXdXdXdXrXtXrX5Xw A.iX+Xj S L &.i.g.f.=   ",
"+   q z.B.v.s.h P.2X2X>XU h I D A D F F F s i u 9 c n c H 4.4.5.P F L L ( 8./ C.,X,X>X9XsXiXiXdXdXhXrX~ L.dX+Xd L P %.t.h.a.=   ",
"+   q x.!.!.M.A T.7X4X2X/ ~ ]..X.X}.eXo.k G F s z i x H K 5.5.3.T L / ) 8.8.) D.7X7X3X7X9X7X7XdXgXfXdXdX5X! Y I &.a.p.t.k.j.-   ",
"+   6 g.k.k.=.y V.R.R.T.L Z ^.`.^.`.@X..d j h 9 8 8 9 i c N N N b j U W U W P ( T.R.R.T.T.T.T.5XtX8XtXtX+Xw y j B #.#.#.p.#.=   ",
"    X = = = & X % < : ; $ O $ $ $ $ $ $ O O O O X O O O @ # @ @ @ @ @ @ $ # @ % ; : ; < < : 1 1 1 1 1 ; ; ; $ O # + + & = &     ",
"                                                                                                                  .             "
};
